<?xml version="1.0" encoding="utf-8" ?><svg xmlns="http://www.w3.org/2000/svg" xmlns:xlink="http://www.w3.org/1999/xlink" width="732" height="195" viewBox="0 0 732 195"><path d="M12.9758 195C11.9599 187.787 13.105 177.65 13.1265 170.101C13.1554 159.973 13.206 149.769 13.2017 139.646L13.0851 66.3109C12.9466 47.2103 12.945 28.109 13.0801 9.00842C13.113 6.98626 13.1243 5.16129 14.0938 3.33479C16.1127 1.71617 26.062 2.59235 28.9626 2.66107C34.495 2.79215 40.0363 2.85435 45.5726 2.8749L114.55 2.92236L516.403 2.92578L646.601 2.92609L685.981 2.899C693.584 2.8647 702.88 2.55497 710.33 2.93265C710.895 10.9964 710.399 24.4827 710.403 33.0282L710.278 97.9785L710.314 166.075C710.285 174.517 710.711 186.951 710.218 195L12.9758 195Z"/><path fill="white" d="M406.114 8.75L603.582 8.766L667.017 8.70316C677.615 8.68918 694.036 8.31683 704.353 9.0734C704.746 16.539 704.367 28.4838 704.378 36.2103L704.427 92.5799L704.385 154.92C704.386 165.64 704.745 178.041 704.315 188.579C691.457 189.235 674.447 188.777 661.179 188.803L574.074 188.796L318.001 188.779L124.808 188.649C89.702 188.642 53.2784 189.231 18.2952 188.548C17.9557 169.861 18.5215 148.982 18.5498 130.082L18.5572 8.96325C55.9858 8.54725 94.0919 9.20551 131.59 9.2L406.114 8.75Z"/><path fill="#5473FE" d="M42.7177 21.1397L259.983 20.8487C288.649 20.9553 318.535 20.5473 347.062 21.136C351.532 20.9441 356.488 21.0729 360.994 21.0978C361.316 58.8574 361.354 96.6189 361.108 134.379C361.138 148.53 360.971 162.328 361.335 176.485C357.547 176.982 349.718 176.821 345.701 176.817L319.543 176.798L230.651 176.829L99.7136 176.773L58.743 176.786C50.0297 176.789 40.8257 176.937 32.1515 176.575C31.4545 159.51 32.0317 138.918 32.016 121.442L32.2104 21.082C35.7129 21.0379 39.2159 21.0572 42.7177 21.1397Z"/><path fill="#474E81" d="M42.7177 21.1397L259.983 20.8487C288.649 20.9553 318.535 20.5473 347.062 21.136C338.314 21.9127 329.313 21.7803 320.523 21.7838L286.713 21.7716L179.03 21.7936L87.684 21.7932L61.7537 21.7593C55.4972 21.7469 48.8847 21.937 42.7177 21.1397Z"/><path fill="white" d="M109.927 80.0896C118.968 79.2837 128.338 83.0641 130.872 92.6818C131.102 93.557 130.889 94.3804 130.499 95.1785C129.841 95.9211 129.258 96.2041 128.228 96.2881C123.145 96.6482 123.284 90.7137 119.803 88.007C113.7 83.2615 101.672 85.4742 102.362 94.8193C102.882 101.871 111.515 102.359 116.853 103.793C122.935 105.427 130.476 107.704 131.207 115.196C132.637 126.126 125.309 131.634 115.18 132.71C114.494 132.775 113.806 132.814 113.118 132.827C108.196 132.893 103.091 131.64 99.4843 127.951C97.3374 125.756 92.2849 119.53 94.9761 116.358C95.8469 115.332 99.541 115.68 100.993 115.726C101.91 119.016 102.712 122.32 105.758 124.361C112.519 128.893 126.626 126.429 123.908 115.825C122.477 110.245 116.507 109.407 111.676 108.394C105.762 107.252 97.4168 104.81 96.2084 97.7945C94.3532 87.0242 100.734 82.1662 109.927 80.0896Z"/><path fill="white" d="M148.104 80.8061C149.498 80.6955 151.066 80.4931 152.186 81.3187C153.369 83.1571 153.042 99.8894 153.058 103.458C159.946 96.2971 166.706 89.0145 173.335 81.6133C176.463 80.8919 178.574 80.991 181.695 81.1587C180.549 82.7342 176.546 86.7474 174.973 88.4153C170.362 93.2553 165.809 98.1497 161.314 103.097C162.187 104.655 164.897 108.124 166.086 109.72C169.642 114.474 173.234 119.201 176.861 123.902C178.363 126.077 183.27 130.857 181.336 132.957C179.363 133.632 177.235 132.915 175.242 132.394C172.846 128.801 169.44 124.488 166.794 120.934C163.859 116.99 159.997 111.43 156.71 107.998C155.322 109.006 154.559 109.961 153.451 111.237C152.601 117.51 153.363 124.573 153.016 130.945C152.838 134.214 148.739 133.031 146.245 132.761C146.211 126.898 145.772 84.0098 146.766 81.3052L148.104 80.8061Z"/><defs><linearGradient id="gradient_0" gradientUnits="userSpaceOnUse" x1="254.30005" y1="108.22169" x2="222.06273" y2="106.49444"><stop offset="0" stop-color="#FCF6E2"/><stop offset="1" stop-color="white"/></linearGradient></defs><path fill="url(#gradient_0)" d="M224.083 80.8102C226.117 80.7167 227.798 80.3454 229.26 81.6637C229.823 84.4762 229.599 94.1042 229.579 97.3424C229.458 107.056 229.481 116.772 229.648 126.485C233.818 126.622 251.501 126.316 253.677 127.783C254.569 129.334 254.398 131.698 253.043 132.932C244.601 132.813 230.312 133.474 222.7 132.752C222.681 127.063 222.138 83.6113 222.972 81.2579L224.083 80.8102Z"/><path fill="white" d="M269 80.8696C270.788 80.6435 272.735 80.6604 274.548 80.6338C276.211 93.1012 274.546 113.366 275.251 126.667C279.791 126.743 296.047 126.501 299.019 127.721C299.912 128.939 299.945 131.463 298.784 132.513C289.391 132.868 277.897 132.953 268.472 132.857C268.014 127.955 268.205 82.1903 269 80.8696Z"/><path fill="white" d="M200.073 80.8433C201.597 80.7302 204.168 80.3738 205.408 81.3052C206.579 89.4586 205.552 122.492 205.641 132.401C205.643 132.718 204.688 132.902 204.223 133.047C202.723 133.073 200.345 132.81 198.787 132.685C199.111 116.727 198.783 100.704 198.992 84.7393C199.013 83.1239 198.692 81.7501 200.073 80.8433Z"/><path d="M409.382 80.7105C422.4 81.0196 447.786 76.648 446.162 96.4743C445.807 100.814 442.724 103.192 439.62 105.642C443.413 107.673 446.675 109.254 448.314 113.696C449.694 117.435 449.014 121.912 447.338 125.464C442.493 131.739 437.49 133.04 429.86 132.984C423.005 132.935 416.14 132.821 409.285 132.711C409.743 127.853 409.417 121.637 409.457 116.669C409.551 104.769 409.021 92.5833 409.382 80.7105Z"/><path fill="white" d="M420.771 111.001C427.699 110.931 440.023 108.901 438.317 119.248C438.103 120.549 438.008 121.183 436.897 122.062C431.59 124.29 426.343 123.909 420.647 123.972C420.546 119.564 420.655 115.404 420.771 111.001Z"/><path fill="white" d="M420.991 89.7976C424.297 89.7584 430.356 89.2996 433.097 91.1766C436.173 93.2828 435.646 98.9585 433.666 101.76C430.301 102.973 424.54 102.82 420.815 102.831C420.683 99.8964 420.218 92.2197 420.991 89.7976Z"/><path d="M457.17 80.526C471.94 81.0291 496.659 77.5104 493.56 101.859C492.91 106.964 489.044 110.279 485.022 113.028C486.81 118.003 492.324 127.271 494.969 132.716C491.675 132.968 487.275 132.987 484.004 132.715C481.233 127.226 478.055 121.639 474.389 116.698C472.782 114.532 469.663 114.937 467.238 114.948C466.812 119.926 466.936 127.425 467.122 132.445C463.273 132.795 459.721 132.858 455.869 132.94C455.519 119.841 455.935 95.5191 455.795 81.3828C455.98 81.0877 456.135 80.8398 456.262 80.639L457.17 80.526Z"/><path fill="white" d="M467.484 91.1481C475.934 91.3459 489.791 91.4174 480.78 104.191C476.655 106.237 471.629 105.636 467.083 105.402C466.825 102.736 467.009 93.8289 467.484 91.1481Z"/><path d="M543.456 79.7465C549.194 79.4402 554.839 81.2831 559.289 84.915C563.269 88.1388 566.229 92.4431 566.782 97.6057C563.645 97.5136 559.823 97.7253 556.627 97.8138C554.311 95.5487 552.68 91.5978 549.321 90.5666C542.232 88.3903 536.124 92.4629 534.057 99.3153C532.372 104.901 532.643 111.998 535.161 117.249C538.24 123.671 545.144 125.407 551.326 122.435C554.867 120.727 556.072 116.726 557.19 113.211C554.366 112.939 550.457 112.959 547.366 112.745C547.258 111.706 547.162 110.666 547.078 109.625C546.629 104.01 549.313 104.803 553.916 104.679C557.993 104.623 563.959 104.432 567.823 105.117C568.453 112.129 567.84 125.508 567.577 132.702C564.812 132.823 562.52 132.982 559.77 133.29L559.626 124.628C533.827 149.336 511.094 111.119 527.063 89.175C530.761 84.093 537.278 80.5958 543.456 79.7465Z"/><path d="M582.503 80.5251C583.527 80.4831 585.61 80.6689 586.713 80.7353C587.136 87.6848 586.681 95.4712 586.929 102.657C591.936 103.054 602.212 102.77 607.26 102.476C607.389 95.3721 607.26 88.0609 607.284 80.9234C611.143 80.7037 614.455 80.7088 618.3 80.7447C619.012 97.7796 617.923 115.89 618.669 132.698L614.729 132.858C612.346 132.972 609.871 132.95 607.479 132.964C607.189 126.106 607.292 118.498 607.244 111.584C600.484 111.507 593.725 111.466 586.965 111.461C586.692 118.408 586.793 125.803 586.847 132.754C583.151 132.856 579.453 132.885 575.756 132.84L575.777 80.6818L582.503 80.5251Z"/><path d="M625.82 80.8397C629.651 80.5921 661.779 80.3782 664.075 81.3151C664.609 82.969 664.409 88.649 664.398 90.6177C659.879 90.9059 655.407 90.9725 650.882 91.0657C650.191 98.7977 650.514 110.654 650.516 118.618C650.472 123.321 650.513 128.024 650.638 132.725C646.747 132.852 643.369 132.929 639.457 132.815C639.386 119.135 639.165 104.951 639.415 91.3094C634.822 91.0141 630.223 90.85 625.621 90.8172C625.377 87.8072 625.509 83.8377 625.82 80.8397Z"/><path d="M504.896 80.5425C508.051 80.486 510.175 80.5242 513.315 80.7852C513.843 85.1917 513.4 94.2293 513.363 99.0478L513.311 132.454L509.163 132.731C507.076 132.806 503.966 133.094 502.148 132.297C501.451 131.32 501.487 86.5629 501.4 80.6713L504.896 80.5425Z"/></svg>